<?xml version="1.0" encoding="UTF-8" standalone="no"?>

<svg
  id="svg1933"
  width="292"
  height="277.3333435058594"
  viewBox="0 0 292 277.3333435058594"
  xmlns="http://www.w3.org/2000/svg">
  <defs
     id="defs1937" />
  <g
     id="layer1"
     style="display:inline">
    <path
       id="path10620-3"
       style="display:inline;fill:#000000;fill-opacity:1;fill-rule:evenodd;stroke:none;stroke-width:1px"
       d="m 63.751953125,230.005859375 c 1.8771423748408,-6.6711924358879 4.2306060838993,-14.4980558236967 6.78515625,-21.220703125 3.27020757062193,-28.120843610633 -6.65161553646155,-37.8204553509981 -18.978515625,-56.58984375 -6.92311496787791,1.7423470928385 -12.20507952048567,-0.6477766503982 -15.0078125,-9.669921875 -6.22741882057057,2.7162803171849 -13.52637024531877,-2.5917342663552 -13.52637024531877,-2.5917342663552 C 23.0563963730092,174.4129186115091 37.8873477081257,207.2145728018 63.751953125,230.005859375 Z M 25.994140625,114.828125 c 0.24105245502289,-0.2675606495861 4.2737694680514,-4.6127201130534 10.29296875,-1.556640625 C 35.7730383031676,109.3581579000539 33.0391418773018,94.19806512289271 51.666015625,92.5234375 50.79226685269464,88.04334595151647 52.08937350584604,60.00679236842957 83.203125,70.20703125 82.72737605854392,57.09499908231156 91.15062899558225,51.07699876872325 103.314453125,57.556640625 c 34.0184344785483,-40.92470173630439 72.36688141142,-1.28769853578995 59.884765625,14.376953125 4.915389841481,-2.1444017385973 6.2918427251033,-2.57410087832137 9.515625,0.548828125 19.5500447654332,-40.12964973735148 57.0682040872552,-7.26266443820487 43.76953125,12.88671875 15.7181651153452,-1.59514127119652 14.906797071912,8.9207537503985 14.87890625,15.26953125 7.758698650615,-2.14388922968617 6.6750424415632,5.6201432250423 10.708984375,7.005859375 8.6026987481862,-7.5590429646727 17.2962442280269,1.4412750522139 17.2962442280269,1.4412750522139 C 245.750661792896,57.66566017954816 198.9007841497253,19.76777615834848 143.19921875,19.767578125 86.62504408063027,19.91479831441332 37.81526072304033,59.50254291601081 25.994140625,114.828125 M 240.03125,145.724609375 c -5.4875220665386,-0.00997406305 -7.1885339886034,5.6025927587459 -16.197265625,2.939453125 0,0 -5.9714561263281,15.1366205507853 -7.142578125,23.115234375 -1.4325110016084,9.7594034556037 -1.2641992625592,19.8415699284166 0.2421875,29.58984375 1.1270386584515,7.2934001566962 4.4636114880698,17.9985994479547 7.501953125,26.84765625 l 1.458984375,4.072265625 c 2.2769679048365,6.3978960469473 4.212890625,11.498046875 4.212890625,11.498046875 l -13.330078125,-0.05078125 c -1e-13,0 -0.1175238901876,-0.2301993123475 -0.33203125,-0.673828125 h -56.39453125 c 0,1e-13 1.3759593573214,1.726965870399 5.5234375,1.783203125 -2.8878250171559,2.7904123898406 -10.4338107900843,-1.51028789258 -11.935546875,0.763671875 0.3716061311176,1.408749179166 2.222577405395,1.6058062047932 1.654296875,2.390625 -1.5726385851409,0.8358874262759 -3.8766229918672,0.14820414446 -4.8046875,-1.42578125 -3.7132732961028,-0.3098795567739 -1.4197033991305,3.5466678210122 -3.02734375,4.07421875 -1.3178244077885,-2.3201801678294 -3.4736883287884,-0.6413804401681 -5.16796875,-1.583984375 -0.2095115169869,-0.4470570548534 0.3646925468963,-0.9192271186145 0.572265625,-1.3671875 0.3603684692656,-0.7777058489777 1.6302359512057,-1.5692117348302 1.16796875,-2.291015625 -2.8798467939699,-0.5178777951434 -4.3690742347376,-0.036861627977 -6.525390625,0.259765625 -1.0477178028565,1.313449398647 -3.0672274959606,1.913017840933 -4.142578125,0.986328125 -0.441159457059,-0.3801717513369 -2.5031359836831,-2.3836077992614 0.150390625,-1.7421875 1.0239336645298,0.8288561787188 2.5077770561967,0.5225293239738 2.947265625,-0.365234375 C 136.7272462766492,244.0109253895126 135.564453125,243 135.564453125,243 H 76.75116608312059 L 75.861328125,244.146484375 l -15.888671875,0.1015625 c 0,1e-13 1.23896967178765,-4.8833923759732 2.6171875,-10.037109375 -27.57398307483399,-23.5596792927694 -43.4609846747755,-58.0032810636168 -43.482421875,-94.271484375 -8.1744324903e-4,-68.53466149837268 55.55713537225022,-124.0934887602844 124.091796875,-124.09375 68.5346615027498,2.6123971563e-4 124.0926143182491,55.55908850162735 124.091796875,124.09375 -0.048990199353,35.2670806870779 -15.1016670158752,68.8474401074886 -41.396484375,92.349609375 -0.5124381481747,-1.4398648288138 -0.9116977665443,-2.4783137710155 -1.458984375,-4.072265625 22.3273058278728,-20.4826502096031 36.0029409297093,-48.5518091147635 38.51673744731,-78.5045124668104 0,0 -16.4337341088502,1.5264331330968 -22.92103432231,-3.9876750331896 z M 136.302734375,241.203125 c 0,0 -0.4481118454202,-0.9937646307117 -0.849609375,-1.3359375 -3.1446850769234,-0.8753431545581 -9.3599875641506,-0.4866669496962 -11.376953125,-4.921875 -1.2723350776549,-5.2826815029396 2.0303849442947,-14.3037551095986 5.859375,-17 2.6401635743061,-2.8022503663509 1.38671875,-11.771484375 1.38671875,-11.771484375 3.5945886190526,3.0360607282073 2.0514432905758,6.7469649026142 4.2265625,7.17578125 2.0947038151016,-1.9012655512874 -0.3034912454368,-7.3702573714154 1.69140625,-12.015625 0,0 2.760506593262,-3.3868609930035 2.66015625,-6.34375 0.658995359886,-2.7409930026126 0.6328125,-8.43359375 0.6328125,-8.43359375 6.6164039297773,7.454359605682 5.0958464494767,10.0237224873683 4.859375,13.546875 3.8808532720755,1.4313024096058 4.9837008717084,-4.1995770067685 6.41796875,-10.1015625 4.1263348616174,5.0980848945963 5.5977136489991,14.2525736079023 5.265625,19.580078125 2.0643735610209,0.5464144003846 2.7086158275389,-1.2822076130732 5.3671875,-3.388671875 -0.5028961975102,8.1369023650167 2.9223688071097,5.3807394436479 4.046875,16.666015625 3.4120040268858,1.8897678006573 4.9140625,-2.935546875 4.9140625,-2.935546875 1.7257246738633,18.2746373807643 -7.3125,21.306640625 -7.3125,21.306640625 H 215.5625 c -0.6533161485381,-1.4215952689859 -1.3058971802983,-2.8438326830011 -1.958984375,-4.265625 -5.5549462572523,-11.9381189907688 -17.3456406626216,-38.7398868156129 -20.703125,-59.27734375 L 143.90625,135.8125 96.146484375,181.203125 C 93.13758858020982,201.6783593131881 88.84006791767575,223.2464770595279 78.046875,241.201171875 M 193.521484375,141.15625 c 1.673375350148,1.2410690900374 2.0482961915399,3.3553178005541 3.1015625,3.73828125 1.7873055047525,0.6498571878884 2.3878643798574,1.5153458845881 2.587890625,3.173828125 -0.4140177362295,1.2792628406288 -1.595703125,1.30859375 -1.595703125,1.30859375 -1.1000412431702,0.4568561827309 -0.4120466027237,1.5932155035471 -0.4296875,2.751953125 -0.4461164462167,2.824933761502 -1.6972656249999,0.041015625 -1.697265625,0.041015625 -2.4289164298138,-3.5274734150571 -4.6350649726866,-7.1485514728028 -1.966796875,-11.013671875 z m 20.939453125,5.47265625 c -1.6586647265992,4.723460575203 -1.3819549143695,9.8140970206659 -3.98046875,13.375 -3.3630182057947,5.2866682277435 -1.2140590663403,14.3088093725703 -2.8984375,16.271484375 -7.3043604769754,-10.8460748053652 -5.7129042509302,-24.7222628014192 -1.896484375,-26.900390625 0.5125719200018,0.070150339451 7.4501190090708,-1.4358857557734 8.775390625,-2.74609375 z m -27.02734375,0.98046875 c 2.5393555374156,3.6022593247785 9.8608232366113,15.7513066807187 10.177734375,22.630859375 0,0 -3.0998911254696,-2.3336729139502 -6.4765625,-5.986328125 -2.1702165019428,-1.8035958566144 -8.2896535413481,-6.5748244277691 -10.541015625,-8.53125 -1.4307260611032,-1.3366925481579 -4.6029747683825,-2.2294884265581 -4.005859375,-4.9140625 4.5765468027439,0.2114579378152 5.8819979222153,1.1028754231802 10.845703125,-3.19921875 z m -80.19140625,1.5625 c 0.5125719200018,0.070150339451 3.0468969982468,0.01190422551 3.986328125,0.1640625 -1.2998249325492,4.7384474995011 -7.5554319483086,7.7197562969661 -10.25,11.837890625 -3.45385122744293,1.366053503832 -4.95423705447914,4.584926737652 -7.83203125,7.146484375 l -1.298828125,0.05078125 c 0,0 -0.67244667699379,-1.2218826221653 0.21484375,-2.349609375 0,0 1.43455061673104,-1.6660674888462 1.673828125,-2.830078125 3.30372387965265,-11.1174732885034 8.4261003890212,-7.1323200975363 13.505859375,-14.01953125 z m -46.681640625,5.49609375 4.994140625,0.26171875 c 0,0 0.41925241250983,11.8189076970638 11.880859375,14.6796875 0,0 2.14297333174215,4.9823697309506 -0.48046875,9.13671875 -1.53862103713965,3.403449344143 -16.39453125,-24.078125 -16.39453125,-24.078125 z m 28.896484375,1.1953125 c 0.89951078010365,0.047666713697 3.33203125,0.111328125 3.33203125,0.111328125 -2.67981911509293,3.6019676817664 -0.7165198556016,5.619081390717 -5.875,10.7109375 -0.64655265733737,1.1171633451656 -0.28124999999999,4.298828125 -0.28125,4.298828125 l -2.732421875,1.298828125 c -1.7851874263413,-1.3128237342094 -0.0312500000001,-6.43359375 -0.03125,-6.43359375 4.84490960631808,-5.0946761143003 5.587890625,-9.986328125 5.587890625,-9.986328125 z m 57.826171875,55.564453125 c 1.8985482447862,4.9553081198148 -1.3988424355064,8.9973797977179 2.298828125,10.4609375 1.910025793358,0.0079298065 0.9078463143586,-1.6730194517273 1.775390625,-4.361328125 1.6159078123061,3.6196133099682 0.7518404815867,6.9106267756218 3.16796875,8.599609375 1.7419677807588,0.27771192645 3.6049637574115,0.7005157038766 6.369140625,10.591796875 -0.5282499057078,9.5999483245161 -6.5886734291421,0.705839001768 -7.224609375,6.62890625 -1.0902930962445,-1.0516914232023 -0.3967490388192,-1.9927257126304 -1.20703125,-2.271484375 -0.9982889580563,1.2956367581983 -2.0858474265329,0.7893370991507 -3.984375,1.78125 -0.036890450667,-1.3164757333467 -0.4851894306372,-1.6537545892296 -1.185546875,-1.76953125 -1.4573960864614,1.0064644580135 -1.4631083948737,2.0397192598011 -2.5078125,1.916015625 -3.7426891631442,-3.6383290263474 -6.0366916551487,-5.7908896157698 -8.490234375,-10.455078125 -1.1041544096616,-2.7266623336668 0.968106083984,-6.9261188313213 3.3359375,-10.40234375 1.3328514261175,3.4016113450515 3.775390625,3.9843750000001 3.775390625,3.984375 1.7452926286979,-3.9540753968662 -0.9402953455568,-3.4945880179086 3.876953125,-14.703125 z" />
  </g>
</svg>
